HIERARCHY
ROOT Hips
{
  OFFSET 0.0273292 -0.436096 0.279869
  CHANNELS 6 Xposition Yposition Zposition Zrotation Xrotation Yrotation
  JOINT LHipJoint
  {
    OFFSET 0 0 0
    CHANNELS 6 Xposition Yposition Zposition Zrotation Xrotation Yrotation
    JOINT LeftUpLeg
    {
      OFFSET 1.36306 -1.79463 0
      CHANNELS 6 Xposition Yposition Zposition Zrotation Xrotation Yrotation
      JOINT LeftLeg
      {
        OFFSET 2.44807 -6.72613 0.000295034
        CHANNELS 6 Xposition Yposition Zposition Zrotation Xrotation Yrotation
        JOINT LeftFoot
        {
          OFFSET 2.5622 -7.03959 3.59965e-05
          CHANNELS 6 Xposition Yposition Zposition Zrotation Xrotation Yrotation
          JOINT LeftToeBase
          {
            OFFSET 0.15764 -0.43311 2.32255
            CHANNELS 6 Xposition Yposition Zposition Zrotation Xrotation Yrotation
            End Site
            {
              OFFSET 0 0 0
            }
          }
        }
      }
    }
  }
  JOINT RHipJoint
  {
    OFFSET 0 0 0
    CHANNELS 6 Xposition Yposition Zposition Zrotation Xrotation Yrotation
    JOINT RightUpLeg
    {
      OFFSET -1.30552 -1.79463 0
      CHANNELS 6 Xposition Yposition Zposition Zrotation Xrotation Yrotation
      JOINT RightLeg
      {
        OFFSET -2.54234 -6.98562 -0.000396375
        CHANNELS 6 Xposition Yposition Zposition Zrotation Xrotation Yrotation
        JOINT RightFoot
        {
          OFFSET -2.56826 -7.05623 -4.47982e-05
          CHANNELS 6 Xposition Yposition Zposition Zrotation Xrotation Yrotation
          JOINT RightToeBase
          {
            OFFSET -0.16473 -0.45259 2.36315
            CHANNELS 6 Xposition Yposition Zposition Zrotation Xrotation Yrotation
            End Site
            {
              OFFSET 0 0 0
            }
          }
        }
      }
    }
  }
  JOINT LowerBack
  {
    OFFSET 0 0 0
    CHANNELS 6 Xposition Yposition Zposition Zrotation Xrotation Yrotation
    JOINT Spine
    {
      OFFSET 0.0282699 2.03559 0
      CHANNELS 6 Xposition Yposition Zposition Zrotation Xrotation Yrotation
      JOINT Spine1
      {
        OFFSET 0.05672 2.04885 -0.04275
        CHANNELS 6 Xposition Yposition Zposition Zrotation Xrotation Yrotation
        JOINT Neck
        {
          OFFSET 0 0 0
          CHANNELS 6 Xposition Yposition Zposition Zrotation Xrotation Yrotation
          JOINT Neck1
          {
            OFFSET -0.05417 1.74624 0.17202
            CHANNELS 6 Xposition Yposition Zposition Zrotation Xrotation Yrotation
            JOINT Head
            {
              OFFSET 0.10407 1.76136 -0.12397
              CHANNELS 6 Xposition Yposition Zposition Zrotation Xrotation Yrotation
              End Site
              {
                OFFSET 0 0 0
              }
            }
          }
        }
        JOINT LeftShoulder
        {
          OFFSET 0 0 0
          CHANNELS 6 Xposition Yposition Zposition Zrotation Xrotation Yrotation
          JOINT LeftArm
          {
            OFFSET 3.36241 1.20089 -0.311211
            CHANNELS 6 Xposition Yposition Zposition Zrotation Xrotation Yrotation
            JOINT LeftForeArm
            {
              OFFSET 4.983 0.000197398 0.000166057
              CHANNELS 6 Xposition Yposition Zposition Zrotation Xrotation Yrotation
              JOINT LeftHand
              {
                OFFSET 3.48356 0 1.87849e-05
                CHANNELS 6 Xposition Yposition Zposition Zrotation Xrotation Yrotation
                JOINT LeftFingerBase
                {
                  OFFSET 0 0 0
                  CHANNELS 6 Xposition Yposition Zposition Zrotation Xrotation Yrotation
                  JOINT LeftHandIndex1
                  {
                    OFFSET 0.71526 0 0
                    CHANNELS 6 Xposition Yposition Zposition Zrotation Xrotation Yrotation
                    End Site
                    {
                      OFFSET 0 0 0
                    }
                  }
                }
                JOINT LThumb
                {
                  OFFSET 0 0 0
                  CHANNELS 6 Xposition Yposition Zposition Zrotation Xrotation Yrotation
                  End Site
                  {
                    OFFSET 0 0 0
                  }
                }
              }
            }
          }
        }
        JOINT RightShoulder
        {
          OFFSET 0 0 0
          CHANNELS 6 Xposition Yposition Zposition Zrotation Xrotation Yrotation
          JOINT RightArm
          {
            OFFSET -3.1366 1.37405 -0.404651
            CHANNELS 6 Xposition Yposition Zposition Zrotation Xrotation Yrotation
            JOINT RightForeArm
            {
              OFFSET -5.2419 -5.8808e-05 -0.000165864
              CHANNELS 6 Xposition Yposition Zposition Zrotation Xrotation Yrotation
              JOINT RightHand
              {
                OFFSET -3.44417 0 -2.00002e-05
                CHANNELS 6 Xposition Yposition Zposition Zrotation Xrotation Yrotation
                JOINT RightFingerBase
                {
                  OFFSET 0 0 0
                  CHANNELS 6 Xposition Yposition Zposition Zrotation Xrotation Yrotation
                  JOINT RightHandIndex1
                  {
                    OFFSET -0.62253 0 0
                    CHANNELS 6 Xposition Yposition Zposition Zrotation Xrotation Yrotation
                    End Site
                    {
                      OFFSET 0 0 0
                    }
                  }
                }
                JOINT RThumb
                {
                  OFFSET 0 0 0
                  CHANNELS 6 Xposition Yposition Zposition Zrotation Xrotation Yrotation
                  End Site
                  {
                    OFFSET 0 0 0
                  }
                }
              }
            }
          }
        }
      }
    }
  }
}
MOTION
Frames:	6
Frame Time:	0.00833333
-0.0741616 2.09601 -0.0580401 0.788616 -2.32954 2.03168 0 0 0 1.61513e-16 7.95139e-16 -7.95139e-16 1.36306 -1.79463 6.37822e-08 -12.7125 -3.37912 9.78675 2.44809 -6.72614 -2.88661e-05 -0.451054 9.1768 -1.56182 2.5622 -7.03959 -1.87459e-05 -6.62092 -4.71251 -1.7417 0.15764 -0.43311 2.32255 5.46658e-16 0 -1.59028e-15 0 0 0 1.61513e-16 7.95139e-16 -7.95139e-16 -1.30552 -1.79463 -9.59887e-09 17.8604 -12.6078 -8.3013 -2.54244 -6.9856 0.000503903 2.47745 25.8082 -8.45448 -2.56826 -7.05622 4.51957e-05 -0.858882 -14.6998 5.11599 -0.16473 -0.45259 2.36315 -4.32357e-15 -3.97569e-16 -0 0 0 0 1.61513e-16 7.95139e-16 -7.95139e-16 0.02827 2.03559 4.47485e-07 0.674626 3.33886 0.555944 0.05672 2.04885 -0.04275 6.27414e-16 1.98785e-16 3.97569e-16 0 0 0 4.22417e-16 1.98785e-16 7.95139e-16 -0.05417 1.74624 0.17202 0.0765031 1.54598 -0.2781 0.10407 1.76136 -0.12397 -1.61513e-16 -3.97569e-16 -7.95139e-16 0 0 0 4.22417e-16 1.98785e-16 7.95139e-16 3.36241 1.20089 -0.31121 -81.8917 5.67457 -0.902497 4.983 0.000188411 0.000168558 1.00086 0.293338 -10.1401 3.48356 4.97784e-06 -1.0964e-05 0.000100551 1.59028e-15 0.000188127 0 0 0 -2.38542e-15 0 -1.59028e-15 0.71526 0 0 -8.94531e-16 -3.97569e-16 1.59028e-15 0 0 0 -2.38542e-15 0 -1.59028e-15 0 0 0 4.22417e-16 1.98785e-16 7.95139e-16 -3.1366 1.37405 -0.40465 82.6587 23.9958 0.599445 -5.24191 0.000244453 0.00010752 -1.00038 0.285676 9.80351 -3.44417 6.42399e-06 -1.20969e-05 -7.82347e-05 9.54166e-15 -0.000188603 0 0 0 0 3.18055e-15 -0 -0.62253 0 0 0 0 -0 0 0 0 0 3.18055e-15 -0 
-0.114454 2.07834 -0.0627791 1.02118 -2.20257 2.25224 0 0 0 2.73329e-16 -7.95139e-16 -0 1.36306 -1.79463 6.37822e-08 -12.7458 -3.68229 9.47646 2.44809 -6.72614 -2.88661e-05 -0.345117 9.36953 -1.3531 2.5622 -7.03959 -1.87459e-05 -6.62421 -4.78406 -1.77281 0.15764 -0.43311 2.32255 2.38542e-15 -1.19271e-15 1.59028e-15 0 0 0 2.73329e-16 -7.95139e-16 -0 -1.30552 -1.79463 -9.59887e-09 17.8728 -12.8954 -8.09229 -2.54244 -6.9856 0.000503903 2.33983 25.9388 -8.58506 -2.56826 -7.05622 4.51957e-05 -0.764982 -14.7043 5.12799 -0.16473 -0.45259 2.36315 -7.45443e-16 7.95139e-16 -0 0 0 0 2.73329e-16 -7.95139e-16 -0 0.02827 2.03559 4.47485e-07 0.573665 3.29919 0.359085 0.05672 2.04885 -0.04275 -2.60905e-16 0 -1.19271e-15 0 0 0 -2.67117e-16 0 -1.19271e-15 -0.05417 1.74624 0.17202 0.18475 1.44326 -0.373744 0.10407 1.76136 -0.12397 1.11816e-16 -3.97569e-16 3.97569e-16 0 0 0 -2.67117e-16 0 -1.19271e-15 3.36241 1.20089 -0.31121 -81.4195 5.85697 -0.681413 4.983 0.000188411 0.000168558 1.16156 0.0408915 -10.8685 3.48356 4.97784e-06 -1.0964e-05 -0.451468 0.256084 -0.0507188 0 0 0 9.93923e-16 1.59028e-15 -0 0.71526 0 0 8.94531e-16 2.38542e-15 3.18055e-15 0 0 0 9.93923e-16 1.59028e-15 -0 0 0 0 -2.67117e-16 0 -1.19271e-15 -3.1366 1.37405 -0.40465 82.1906 24.32 1.14941 -5.24191 0.000244453 0.00010752 -1.0735 0.65966 10.1702 -3.44417 6.42399e-06 -1.20969e-05 0.542882 0.348945 0.10042 0 0 0 0 9.54166e-15 -0 -0.62253 0 0 7.95139e-16 0 1.59028e-15 0 0 0 0 9.54166e-15 -0 
-0.210945 2.03124 -0.074408 1.56883 -1.79303 2.73717 0 0 0 -3.97569e-16 -3.97569e-16 -3.97569e-16 1.36306 -1.79463 6.37822e-08 -12.7931 -4.63085 8.72543 2.44809 -6.72614 -2.88661e-05 -0.139752 9.99235 -0.744781 2.5622 -7.03959 -1.87459e-05 -6.62855 -4.99989 -1.86528 0.15764 -0.43311 2.32255 1.68967e-15 7.95139e-16 1.59028e-15 0 0 0 -3.97569e-16 -3.97569e-16 -3.97569e-16 -1.30552 -1.79463 -9.59887e-09 17.8958 -13.7895 -7.5392 -2.54244 -6.9856 0.000503903 2.0941 26.4199 -8.93435 -2.56826 -7.05622 4.51957e-05 -0.551255 -14.7361 5.17475 -0.16473 -0.45259 2.36315 5.91384e-15 -7.95139e-16 -7.95139e-16 0 0 0 -3.97569e-16 -3.97569e-16 -3.97569e-16 0.02827 2.03559 4.47485e-07 0.329124 3.21177 -0.105399 0.05672 2.04885 -0.04275 3.60297e-16 -3.97569e-16 3.97569e-16 0 0 0 7.45443e-16 -5.96354e-16 3.97569e-16 -0.05417 1.74624 0.17202 0.458414 1.16917 -0.584123 0.10407 1.76136 -0.12397 1.86361e-16 -3.97569e-16 -0 0 0 0 7.45443e-16 -5.96354e-16 3.97569e-16 3.36241 1.20089 -0.31121 -80.1844 6.28682 -0.0697228 4.983 0.000188411 0.000168558 1.60962 -0.682088 -12.8376 3.48356 4.97784e-06 -1.0964e-05 -1.44332 0.819465 -0.162729 0 0 0 6.95746e-16 -2.38542e-15 -0 0.71526 0 -1.11022e-16 -2.28602e-15 -1.59028e-15 -0 0 0 0 6.95746e-16 -2.38542e-15 -0 0 0 0 7.45443e-16 -5.96354e-16 3.97569e-16 -3.1366 1.37405 -0.40465 80.9122 25.0471 2.36983 -5.24191 0.000244453 0.00010752 -1.29768 1.56787 11.3081 -3.44417 6.42399e-06 -1.20969e-05 1.7324 1.1166 0.356775 0 0 0 7.95139e-16 -9.54166e-15 -4.77083e-15 -0.62253 8.88178e-16 -2.22045e-16 2.38542e-15 -3.18055e-15 -0 0 0 0 7.95139e-16 -9.54166e-15 -4.77083e-15 
-0.327053 1.96358 -0.0890445 2.20541 -1.05821 3.22164 0 0 0 -8.69683e-17 5.96354e-16 -0 1.36306 -1.79463 6.37822e-08 -12.7865 -6.28457 7.80463 2.44809 -6.72614 -2.88661e-05 -0.0186302 11.1112 0.239178 2.5622 -7.03959 -1.87459e-05 -6.62639 -5.36169 -2.01788 0.15764 -0.43311 2.32255 -2.08724e-15 3.97569e-16 -1.59028e-15 0 0 0 -8.69683e-17 5.96354e-16 -0 -1.30552 -1.79463 -9.59887e-09 17.9215 -15.3382 -6.75155 -2.54244 -6.9856 0.000503903 1.9986 27.3843 -9.44343 -2.56826 -7.05622 4.51957e-05 -0.319472 -14.8232 5.27242 -0.16473 -0.45259 2.36315 3.27995e-15 -3.97569e-16 -0 0 0 0 -8.69683e-17 5.96354e-16 -0 0.02827 2.03559 4.47485e-07 0.0293837 3.12409 -0.648419 0.05672 2.04885 -0.04275 3.97569e-16 0 -0 0 0 0 4.22417e-16 -3.97569e-16 -3.97569e-16 -0.05417 1.74624 0.17202 0.821441 0.774851 -0.794451 0.10407 1.76136 -0.12397 -2.36057e-16 0 5.96354e-16 0 0 0 4.22417e-16 -3.97569e-16 -3.97569e-16 3.36241 1.20089 -0.31121 -78.4591 6.78755 0.855423 4.983 0.000188411 0.000168558 2.26506 -1.8134 -15.7259 3.48356 4.97784e-06 -1.0964e-05 -2.43296 1.38284 -0.274787 0 0 0 7.95139e-16 0 -0 0.71526 8.88178e-16 1.11022e-16 3.97569e-16 1.59028e-15 -1.59028e-15 0 0 0 7.95139e-16 0 -0 0 0 0 4.22417e-16 -3.97569e-16 -3.97569e-16 -3.1366 1.37405 -0.40465 79.0366 25.8161 3.6067 -5.24191 0.000244453 0.00010752 -1.69604 2.68423 13.2754 -3.44417 6.42399e-06 -1.20969e-05 2.91217 1.88416 0.700766 0 0 0 7.95139e-16 0 -0 -0.62253 4.44089e-16 -8.88178e-16 2.38542e-15 1.90833e-14 -0 0 0 0 7.95139e-16 0 -0 
-0.426198 1.8842 -0.102806 2.71429 0.0447617 3.44166 0 0 0 -4.77549e-17 3.72721e-17 3.97569e-16 1.36306 -1.79463 6.37822e-08 -12.6488 -8.70179 6.9875 2.44809 -6.72614 -2.88661e-05 -0.187756 12.7896 1.58054 2.5622 -7.03959 -1.87459e-05 -6.61108 -5.87114 -2.22954 0.15764 -0.43311 2.32255 -5.96354e-16 -7.95139e-16 -3.18055e-15 0 0 0 -4.77549e-17 3.72721e-17 3.97569e-16 -1.30552 -1.79463 -9.59887e-09 17.9512 -17.5899 -5.83738 -2.54244 -6.9856 0.000503903 2.32179 28.964 -10.0618 -2.56826 -7.05622 4.51957e-05 -0.170862 -14.9932 5.43733 -0.16473 -0.45259 2.36315 -9.93923e-16 0 -0 0 0 0 -4.77549e-17 3.72721e-17 3.97569e-16 0.02827 2.03559 4.47485e-07 -0.234657 3.08398 -1.08103 0.05672 2.04885 -0.04275 4.96962e-17 0 3.97569e-16 0 0 0 4.96962e-17 -3.97569e-16 -0 -0.05417 1.74624 0.17202 1.201 0.311427 -0.890017 0.10407 1.76136 -0.12397 -4.84538e-16 7.95139e-16 3.97569e-16 0 0 0 4.96962e-17 -3.97569e-16 -0 3.36241 1.20089 -0.31121 -76.507 7.18209 2.016 4.983 0.000188411 0.000168558 3.037 -3.27654 -19.2183 3.48356 4.97784e-06 -1.0964e-05 -2.88207 1.63891 -0.325746 0 0 0 2.5842e-15 -2.38542e-15 -0 0.71526 -8.88178e-16 1.11022e-16 3.97569e-15 -7.95139e-16 -3.18055e-15 0 0 0 2.5842e-15 -2.38542e-15 -0 0 0 0 4.96962e-17 -3.97569e-16 -0 -3.1366 1.37405 -0.40465 76.8406 26.2869 4.17889 -5.24191 0.000244453 0.00010752 -2.27926 3.67849 16.1278 -3.44417 6.42399e-06 -1.20969e-05 3.43732 2.23286 1.06397 0 0 0 -1.59028e-15 3.18055e-15 -1.59028e-15 -0.62253 0 0 -1.59028e-15 -3.18055e-15 -1.59028e-15 0 0 0 -1.59028e-15 3.18055e-15 -1.59028e-15 
-0.513419 1.80459 -0.11523 3.13825 1.59672 3.31019 0 0 0 2.98177e-16 -1.98785e-16 -0 1.36306 -1.79463 6.37822e-08 -12.3311 -12.0259 6.33485 2.44809 -6.72614 -2.88661e-05 -0.763862 15.0753 3.40194 2.5622 -7.03959 -1.87459e-05 -6.37193 -6.56813 -2.51654 0.15764 -0.43311 2.32255 1.98785e-16 7.95139e-16 -1.59028e-15 0 0 0 2.98177e-16 -1.98785e-16 -0 -1.30552 -1.79463 -9.59887e-09 17.8996 -20.6664 -4.7501 -2.54244 -6.9856 0.000503903 3.08955 31.2263 -10.8215 -2.56826 -7.05622 4.51957e-05 -0.214624 -15.4023 5.67302 -0.16473 -0.45259 2.36315 -1.49089e-15 -7.95139e-16 -1.59028e-15 0 0 0 2.98177e-16 -1.98785e-16 -0 0.02827 2.03559 4.47485e-07 -0.449289 3.09154 -1.33789 0.05672 2.04885 -0.04275 1.11816e-15 0 -0 0 0 0 1.11816e-15 0 -0 -0.05417 1.74624 0.17202 1.63976 -0.268354 -0.840963 0.10407 1.76136 -0.12397 2.60905e-16 1.59028e-15 -1.98785e-16 0 0 0 1.11816e-15 0 -0 3.36241 1.20089 -0.31121 -74.1483 7.45222 3.4759 4.983 0.000188411 0.000168558 3.74922 -4.97677 -23.5613 3.48356 4.97784e-06 -1.0964e-05 -2.5575 1.10229 0.154386 0 0 0 -2.5842e-15 -2.38542e-15 -0 0.71526 0 0 -2.5842e-15 -1.59028e-15 3.18055e-15 0 0 0 -2.5842e-15 -2.38542e-15 -0 0 0 0 1.11816e-15 0 -0 -3.1366 1.37405 -0.40465 74.001 26.4505 4.17768 -5.24191 0.000244453 0.00010752 -3.19839 4.44341 20.1999 -3.44417 6.42399e-06 -1.20969e-05 3.33734 1.74618 1.5313 0 0 0 0 0 -1.59028e-15 -0.62253 0 4.44089e-16 1.59028e-15 3.18055e-15 1.59028e-15 0 0 0 0 0 -1.59028e-15 
